<svg width="24" height="15" viewBox="0 0 24 15" fill="none" xmlns="http://www.w3.org/2000/svg">
<path fill-rule="evenodd" clip-rule="evenodd" d="M11.1539 14.5047L0.350866 3.05011C0.125936 2.80932 -0.000532602 2.48803 -0.0019517 2.15308C-0.00244304 1.81773 0.124307 1.49547 0.350866 1.25579C0.461078 1.13708 0.593276 1.04268 0.739606 0.978173C0.885936 0.913662 1.04311 0.880371 1.20216 0.880371C1.36121 0.880371 1.51887 0.913662 1.6652 0.978173C1.81153 1.04268 1.94373 1.13708 2.05394 1.25579L12.0008 11.8134L21.9471 1.25579C22.0573 1.13708 22.1895 1.04268 22.3358 0.978173C22.4821 0.913662 22.6398 0.880371 22.7989 0.880371C22.9579 0.880371 23.1151 0.913662 23.2614 0.978173C23.4077 1.04268 23.5399 1.13708 23.6502 1.25579C23.8734 1.49732 23.998 1.81881 23.998 2.15308C23.998 2.48734 23.8734 2.80858 23.6502 3.05011L12.8471 14.5047C12.7379 14.6234 12.6064 14.718 12.4608 14.7826C12.3153 14.8471 12.1591 14.8804 12.0008 14.8804C11.8424 14.8804 11.6857 14.8471 11.5402 14.7826C11.3947 14.718 11.2631 14.6234 11.1539 14.5047Z" fill="black"/>
</svg>
