<svg width="78" height="72" viewBox="0 0 78 72" fill="none" xmlns="http://www.w3.org/2000/svg">
<path d="M34.6958 65.3458L34.6929 65.3432C24.6113 56.1456 16.4036 48.6443 10.6929 41.6152C5.00457 34.6136 2 28.323 2 21.5804C2 10.5516 10.5516 2 21.45 2C27.6269 2 33.5918 4.90335 37.4784 9.45932L39 11.2429L40.5216 9.45932C44.4082 4.90335 50.3731 2 56.55 2C67.4484 2 76 10.5516 76 21.5804C76 28.323 72.9954 34.6136 67.3071 41.6152C61.5964 48.6443 53.3887 56.1456 43.3071 65.3432L43.3042 65.3458L39 69.2879L34.6958 65.3458Z" stroke="white" stroke-width="4"/>
</svg>
