<svg width="9" height="15" viewBox="0 0 9 15" fill="none" xmlns="http://www.w3.org/2000/svg">
<g clip-path="url(#clip0_726_1069)">
<g clip-path="url(#clip1_726_1069)">
<path fill-rule="evenodd" clip-rule="evenodd" d="M1.79437 14.7461C1.63713 14.9029 1.42416 14.9909 1.20212 14.9909C0.980079 14.9909 0.767107 14.9029 0.609867 14.7461C0.453016 14.584 0.365529 14.3673 0.365529 14.1418C0.365529 13.9162 0.453016 13.6995 0.609867 13.5374L6.56898 7.48181L0.609867 1.4141C0.452929 1.2545 0.365234 1.03964 0.365234 0.815802C0.365234 0.591968 0.452929 0.377101 0.609867 0.2175C0.686286 0.137343 0.778368 0.0735673 0.880172 0.0299681C0.981977 -0.0136311 1.09137 -0.0361328 1.20212 -0.0361328C1.31287 -0.0361328 1.42256 -0.0136311 1.52436 0.0299681C1.62617 0.0735673 1.71795 0.137343 1.79437 0.2175L8.33364 6.87746C8.49049 7.03955 8.57827 7.25626 8.57827 7.48181C8.57827 7.70737 8.49049 7.92408 8.33364 8.08617L1.79437 14.7461Z" fill="white"/>
</g>
</g>
<defs>
<clipPath id="clip0_726_1069">
<rect width="9" height="15" fill="white" transform="translate(-0.00976562)"/>
</clipPath>
<clipPath id="clip1_726_1069">
<rect width="8.195" height="15" fill="white" transform="translate(0.392578)"/>
</clipPath>
</defs>
</svg>
