<svg width="10" height="25" viewBox="0 0 10 25" fill="none" xmlns="http://www.w3.org/2000/svg">
<g clip-path="url(#clip0_692_556)">
<g clip-path="url(#clip1_692_556)">
<path fill-rule="evenodd" clip-rule="evenodd" d="M2.35077 20.458C2.17809 20.6301 1.94419 20.7268 1.70034 20.7268C1.45649 20.7268 1.2226 20.6301 1.04991 20.458C0.877655 20.28 0.781574 20.0419 0.781574 19.7942C0.781574 19.5465 0.877655 19.3085 1.04991 19.1305L7.59439 12.4801L1.04991 5.81633C0.877559 5.64105 0.78125 5.40507 0.78125 5.15925C0.78125 4.91343 0.877559 4.67746 1.04991 4.50218C1.13384 4.41415 1.23497 4.34411 1.34677 4.29623C1.45857 4.24834 1.57872 4.22363 1.70034 4.22363C1.82197 4.22363 1.94243 4.24834 2.05424 4.29623C2.16604 4.34411 2.26685 4.41415 2.35077 4.50218L9.53239 11.8164C9.70465 11.9944 9.80106 12.2324 9.80106 12.4801C9.80106 12.7278 9.70465 12.9658 9.53239 13.1438L2.35077 20.458Z" fill="black"/>
</g>
</g>
<defs>
<clipPath id="clip0_692_556">
<rect width="9" height="24" fill="white" transform="translate(0.810547 0.5)"/>
</clipPath>
<clipPath id="clip1_692_556">
<rect width="9" height="16.4734" fill="white" transform="translate(0.810547 4.26318)"/>
</clipPath>
</defs>
</svg>
